<svg width="98" height="38" viewBox="0 0 98 38" fill="none" xmlns="http://www.w3.org/2000/svg">
<path d="M7.86 31.836C7.86 32.556 7.748 33.184 7.524 33.72C7.3 34.248 6.984 34.688 6.576 35.04C6.168 35.384 5.68 35.644 5.112 35.82C4.544 35.988 3.92 36.072 3.24 36.072C2.904 36.072 2.532 36.056 2.124 36.024C1.724 36 1.36 35.948 1.032 35.868V27.804C1.36 27.724 1.724 27.672 2.124 27.648C2.532 27.616 2.904 27.6 3.24 27.6C3.92 27.6 4.544 27.688 5.112 27.864C5.68 28.032 6.168 28.292 6.576 28.644C6.984 28.988 7.3 29.428 7.524 29.964C7.748 30.492 7.86 31.116 7.86 31.836ZM3.336 35.052C4.44 35.052 5.264 34.772 5.808 34.212C6.352 33.644 6.624 32.852 6.624 31.836C6.624 30.82 6.352 30.032 5.808 29.472C5.264 28.904 4.44 28.62 3.336 28.62C3.008 28.62 2.752 28.624 2.568 28.632C2.392 28.64 2.268 28.648 2.196 28.656V35.016C2.268 35.024 2.392 35.032 2.568 35.04C2.752 35.048 3.008 35.052 3.336 35.052ZM10.7867 36V27.684H15.8627V28.68H11.9507V31.152H15.4307V32.124H11.9507V35.004H16.1627V36H10.7867ZM25.5622 27.684C25.2582 28.564 24.9662 29.38 24.6862 30.132C24.4142 30.876 24.1462 31.584 23.8822 32.256C23.6182 32.928 23.3542 33.572 23.0902 34.188C22.8342 34.796 22.5702 35.4 22.2982 36H21.2062C20.9342 35.4 20.6662 34.796 20.4022 34.188C20.1462 33.572 19.8822 32.928 19.6102 32.256C19.3462 31.584 19.0742 30.876 18.7942 30.132C18.5142 29.38 18.2262 28.564 17.9302 27.684H19.2142C19.6462 28.948 20.0702 30.164 20.4862 31.332C20.9022 32.5 21.3302 33.596 21.7702 34.62C22.2102 33.604 22.6382 32.512 23.0542 31.344C23.4702 30.168 23.8902 28.948 24.3142 27.684H25.5622ZM27.9172 36V27.684H32.9932V28.68H29.0812V31.152H32.5612V32.124H29.0812V35.004H33.2932V36H27.9172ZM40.9766 34.992V36H35.9726V27.684H37.1366V34.992H40.9766ZM42.5202 31.836C42.5202 31.124 42.6242 30.496 42.8322 29.952C43.0482 29.408 43.3362 28.956 43.6962 28.596C44.0642 28.228 44.4882 27.952 44.9682 27.768C45.4562 27.584 45.9722 27.492 46.5162 27.492C47.0522 27.492 47.5562 27.584 48.0282 27.768C48.5082 27.952 48.9282 28.228 49.2882 28.596C49.6482 28.956 49.9322 29.408 50.1402 29.952C50.3562 30.496 50.4642 31.124 50.4642 31.836C50.4642 32.548 50.3562 33.176 50.1402 33.72C49.9322 34.264 49.6482 34.72 49.2882 35.088C48.9282 35.448 48.5082 35.72 48.0282 35.904C47.5562 36.088 47.0522 36.18 46.5162 36.18C45.9722 36.18 45.4562 36.088 44.9682 35.904C44.4882 35.72 44.0642 35.448 43.6962 35.088C43.3362 34.72 43.0482 34.264 42.8322 33.72C42.6242 33.176 42.5202 32.548 42.5202 31.836ZM43.7442 31.836C43.7442 32.34 43.8082 32.8 43.9362 33.216C44.0642 33.624 44.2442 33.972 44.4762 34.26C44.7162 34.548 45.0042 34.772 45.3402 34.932C45.6842 35.084 46.0682 35.16 46.4922 35.16C46.9162 35.16 47.2962 35.084 47.6322 34.932C47.9682 34.772 48.2522 34.548 48.4842 34.26C48.7242 33.972 48.9082 33.624 49.0362 33.216C49.1642 32.8 49.2282 32.34 49.2282 31.836C49.2282 31.332 49.1642 30.876 49.0362 30.468C48.9082 30.052 48.7242 29.7 48.4842 29.412C48.2522 29.124 47.9682 28.904 47.6322 28.752C47.2962 28.592 46.9162 28.512 46.4922 28.512C46.0682 28.512 45.6842 28.592 45.3402 28.752C45.0042 28.904 44.7162 29.124 44.4762 29.412C44.2442 29.7 44.0642 30.052 43.9362 30.468C43.8082 30.876 43.7442 31.332 43.7442 31.836ZM55.6041 27.6C56.7721 27.6 57.6681 27.824 58.2921 28.272C58.9241 28.712 59.2401 29.372 59.2401 30.252C59.2401 30.732 59.1521 31.144 58.9761 31.488C58.8081 31.824 58.5601 32.1 58.2321 32.316C57.9121 32.524 57.5201 32.676 57.0561 32.772C56.5921 32.868 56.0681 32.916 55.4841 32.916H54.5601V36H53.3961V27.804C53.7241 27.724 54.0881 27.672 54.4881 27.648C54.8961 27.616 55.2681 27.6 55.6041 27.6ZM55.7001 28.62C55.2041 28.62 54.8241 28.632 54.5601 28.656V31.92H55.4361C55.8361 31.92 56.1961 31.896 56.5161 31.848C56.8361 31.792 57.1041 31.704 57.3201 31.584C57.5441 31.456 57.7161 31.284 57.8361 31.068C57.9561 30.852 58.0161 30.576 58.0161 30.24C58.0161 29.92 57.9521 29.656 57.8241 29.448C57.7041 29.24 57.5361 29.076 57.3201 28.956C57.1121 28.828 56.8681 28.74 56.5881 28.692C56.3081 28.644 56.0121 28.62 55.7001 28.62ZM65.6288 34.848C65.5488 34.656 65.4408 34.412 65.3048 34.116C65.1768 33.82 65.0368 33.5 64.8848 33.156C64.7328 32.812 64.5688 32.46 64.3928 32.1C64.2248 31.732 64.0648 31.388 63.9128 31.068C63.7608 30.74 63.6168 30.448 63.4808 30.192C63.3528 29.936 63.2488 29.74 63.1688 29.604C63.0808 30.548 63.0088 31.572 62.9528 32.676C62.8968 33.772 62.8488 34.88 62.8088 36H61.6688C61.7008 35.28 61.7368 34.556 61.7768 33.828C61.8168 33.092 61.8608 32.372 61.9088 31.668C61.9648 30.956 62.0208 30.264 62.0768 29.592C62.1408 28.92 62.2088 28.284 62.2808 27.684H63.3008C63.5168 28.036 63.7488 28.452 63.9968 28.932C64.2448 29.412 64.4928 29.916 64.7408 30.444C64.9888 30.964 65.2288 31.488 65.4608 32.016C65.6928 32.536 65.9048 33.012 66.0968 33.444C66.2888 33.012 66.5008 32.536 66.7328 32.016C66.9648 31.488 67.2048 30.964 67.4528 30.444C67.7008 29.916 67.9488 29.412 68.1968 28.932C68.4448 28.452 68.6768 28.036 68.8928 27.684H69.9128C70.1848 30.364 70.3888 33.136 70.5248 36H69.3848C69.3448 34.88 69.2968 33.772 69.2408 32.676C69.1848 31.572 69.1128 30.548 69.0248 29.604C68.9448 29.74 68.8368 29.936 68.7008 30.192C68.5728 30.448 68.4328 30.74 68.2808 31.068C68.1288 31.388 67.9648 31.732 67.7888 32.1C67.6208 32.46 67.4608 32.812 67.3088 33.156C67.1568 33.5 67.0128 33.82 66.8768 34.116C66.7488 34.412 66.6448 34.656 66.5648 34.848H65.6288ZM73.55 36V27.684H78.626V28.68H74.714V31.152H78.194V32.124H74.714V35.004H78.926V36H73.55ZM87.3054 36C87.1294 35.704 86.9254 35.372 86.6934 35.004C86.4694 34.636 86.2254 34.256 85.9614 33.864C85.6974 33.464 85.4214 33.06 85.1334 32.652C84.8534 32.244 84.5734 31.852 84.2934 31.476C84.0134 31.092 83.7414 30.732 83.4774 30.396C83.2134 30.06 82.9694 29.764 82.7454 29.508V36H81.6054V27.684H82.5294C82.9054 28.084 83.3054 28.552 83.7294 29.088C84.1614 29.616 84.5854 30.164 85.0014 30.732C85.4254 31.292 85.8214 31.844 86.1894 32.388C86.5654 32.932 86.8814 33.416 87.1374 33.84V27.684H88.2774V36H87.3054ZM97.0919 27.684V28.692H94.4759V36H93.3119V28.692H90.6959V27.684H97.0919Z" fill="white"/>
<path d="M10.9859 8.62C11.1459 9.16667 11.3193 9.78667 11.5059 10.48C11.7059 11.16 11.9126 11.8667 12.1259 12.6C12.3526 13.3333 12.5793 14.0667 12.8059 14.8C13.0326 15.5333 13.2526 16.2133 13.4659 16.84C13.6393 16.16 13.8126 15.42 13.9859 14.62C14.1726 13.82 14.3459 12.9933 14.5059 12.14C14.6659 11.2867 14.8193 10.44 14.9659 9.6C15.1259 8.74667 15.2726 7.92667 15.4059 7.14H18.6459C18.1793 9.46 17.6393 11.8133 17.0259 14.2C16.4259 16.5867 15.7726 18.8533 15.0659 21H12.2059C11.7393 19.72 11.2859 18.38 10.8459 16.98C10.4059 15.5667 9.9726 14.1533 9.54594 12.74C9.11927 14.1533 8.6926 15.5667 8.26594 16.98C7.83927 18.38 7.3926 19.72 6.92594 21H4.06594C3.35927 18.8533 2.69927 16.5867 2.08594 14.2C1.48594 11.8133 0.952604 9.46 0.485938 7.14H3.86594C3.99927 7.92667 4.14594 8.74667 4.30594 9.6C4.46594 10.44 4.6326 11.2867 4.80594 12.14C4.97927 12.9933 5.1526 13.82 5.32594 14.62C5.5126 15.42 5.69927 16.16 5.88594 16.84C6.12594 16.1867 6.35927 15.4933 6.58594 14.76C6.8126 14.0267 7.0326 13.2933 7.24594 12.56C7.45927 11.8267 7.6526 11.12 7.82594 10.44C8.0126 9.76 8.17927 9.15333 8.32594 8.62H10.9859ZM20.6508 21V7.14H30.0108V9.76H23.7708V12.48H29.3108V15.04H23.7708V18.38H30.4708V21H20.6508ZM37.3997 21.18C36.6397 21.18 35.8797 21.1533 35.1197 21.1C34.373 21.06 33.593 20.9533 32.7797 20.78V7.34C33.4197 7.22 34.1197 7.13333 34.8797 7.08C35.6397 7.01333 36.3464 6.98 36.9997 6.98C37.8797 6.98 38.6864 7.04667 39.4197 7.18C40.1664 7.3 40.8064 7.51333 41.3397 7.82C41.873 8.12667 42.2864 8.53333 42.5797 9.04C42.8864 9.53333 43.0397 10.1467 43.0397 10.88C43.0397 11.9867 42.5064 12.86 41.4397 13.5C42.3197 13.8333 42.9197 14.2867 43.2397 14.86C43.5597 15.4333 43.7197 16.08 43.7197 16.8C43.7197 18.2533 43.1864 19.3467 42.1197 20.08C41.0664 20.8133 39.493 21.18 37.3997 21.18ZM35.8197 14.96V18.54C36.0464 18.5667 36.293 18.5867 36.5597 18.6C36.8264 18.6133 37.1197 18.62 37.4397 18.62C38.373 18.62 39.1264 18.4867 39.6997 18.22C40.273 17.9533 40.5597 17.46 40.5597 16.74C40.5597 16.1 40.3197 15.6467 39.8397 15.38C39.3597 15.1 38.673 14.96 37.7797 14.96H35.8197ZM35.8197 12.58H37.3397C38.2997 12.58 38.9864 12.46 39.3997 12.22C39.813 11.9667 40.0197 11.5667 40.0197 11.02C40.0197 10.46 39.8064 10.0667 39.3797 9.84C38.953 9.61333 38.3264 9.5 37.4997 9.5C37.233 9.5 36.9464 9.50667 36.6397 9.52C36.333 9.52 36.0597 9.53333 35.8197 9.56V12.58ZM49.9972 18.62C50.4372 18.62 50.7972 18.5867 51.0772 18.52C51.3705 18.44 51.6039 18.34 51.7772 18.22C51.9505 18.0867 52.0705 17.9333 52.1372 17.76C52.2039 17.5867 52.2372 17.3933 52.2372 17.18C52.2372 16.7267 52.0239 16.3533 51.5972 16.06C51.1705 15.7533 50.4372 15.4267 49.3972 15.08C48.9439 14.92 48.4905 14.74 48.0372 14.54C47.5839 14.3267 47.1772 14.0667 46.8172 13.76C46.4572 13.44 46.1639 13.06 45.9372 12.62C45.7105 12.1667 45.5972 11.62 45.5972 10.98C45.5972 10.34 45.7172 9.76667 45.9572 9.26C46.1972 8.74 46.5372 8.3 46.9772 7.94C47.4172 7.58 47.9505 7.30667 48.5772 7.12C49.2039 6.92 49.9105 6.82 50.6972 6.82C51.6305 6.82 52.4372 6.92 53.1172 7.12C53.7972 7.32 54.3572 7.54 54.7972 7.78L53.8972 10.24C53.5105 10.04 53.0772 9.86667 52.5972 9.72C52.1305 9.56 51.5639 9.48 50.8972 9.48C50.1505 9.48 49.6105 9.58667 49.2772 9.8C48.9572 10 48.7972 10.3133 48.7972 10.74C48.7972 10.9933 48.8572 11.2067 48.9772 11.38C49.0972 11.5533 49.2639 11.7133 49.4772 11.86C49.7039 11.9933 49.9572 12.12 50.2372 12.24C50.5305 12.3467 50.8505 12.46 51.1972 12.58C51.9172 12.8467 52.5439 13.1133 53.0772 13.38C53.6105 13.6333 54.0505 13.9333 54.3972 14.28C54.7572 14.6267 55.0239 15.0333 55.1972 15.5C55.3705 15.9667 55.4572 16.5333 55.4572 17.2C55.4572 18.4933 55.0039 19.5 54.0972 20.22C53.1905 20.9267 51.8239 21.28 49.9972 21.28C49.3839 21.28 48.8305 21.24 48.3372 21.16C47.8439 21.0933 47.4039 21.0067 47.0172 20.9C46.6439 20.7933 46.3172 20.68 46.0372 20.56C45.7705 20.44 45.5439 20.3267 45.3572 20.22L46.2372 17.74C46.6505 17.9667 47.1572 18.1733 47.7572 18.36C48.3705 18.5333 49.1172 18.62 49.9972 18.62ZM57.8578 7.14H60.9778V21H57.8578V7.14ZM74.4659 7.14V9.8H70.2859V21H67.1659V9.8H62.9859V7.14H74.4659ZM76.4711 21V7.14H85.8311V9.76H79.5911V12.48H85.1311V15.04H79.5911V18.38H86.2911V21H76.4711Z" fill="white"/>
</svg>
